<svg xmlns="http://www.w3.org/2000/svg" viewBox="0 0 800 400" width="800" height="400">
<defs>
  <linearGradient id="bg" x1="0%" y1="0%" x2="100%" y2="100%">
    <stop offset="0%" stop-color="#0c0c0c"/><stop offset="100%" stop-color="#050505"/>
  </linearGradient>
  <linearGradient id="glow" x1="0%" y1="0%" x2="0%" y2="100%">
    <stop offset="0%" stop-color="#fff" stop-opacity="0.4"/>
    <stop offset="100%" stop-color="#fff" stop-opacity="0"/>
  </linearGradient>
  <filter id="shadow">
    <feDropShadow dx="0" dy="4" stdDeviation="6" flood-color="#000" flood-opacity="0.4"/>
  </filter>
</defs>
<rect width="800" height="400" fill="url(#bg)" rx="16"/>

<!-- Header -->
<rect x="0" y="0" width="800" height="42" fill="#111" rx="16"/>
<rect x="0" y="26" width="800" height="16" fill="#111"/>
<text x="400" y="27" text-anchor="middle" fill="#6366F1" font-family="system-ui,-apple-system,sans-serif" font-size="12" font-weight="700" letter-spacing="3">CONTRIBUTION BREAKDOWN</text>

<!-- Chart area -->
<g transform="translate(0,10)">
  <!-- Floor -->
  <rect x="45" y="330" width="630" height="2" rx="1" fill="#222"/>
  <!-- Grid lines -->
  <line x1="55" y1="290" x2="665" y2="290" stroke="#1a1a1a" stroke-width="1" stroke-dasharray="3,3"/>


  <!-- Bars -->
  <g filter="url(#shadow)">
  <!-- Commits bar -->
  <polygon points="65,80 195,80 185,90 55,90" fill="rgba(217,70,239,0.5)" stroke="none"/>
  <polygon points="185,90 195,80 195,320 185,330" fill="rgba(217,70,239,0.25)" stroke="none"/>
  <rect x="55" y="90" width="130" height="240" rx="4" fill="#D946EF"/>
  <!-- Glow -->
  <rect x="55" y="90" width="130" height="240" rx="4" fill="url(#glow)" opacity="0.3"/>
  <!-- Value on top -->
  <text x="120" y="76" text-anchor="middle" fill="#D946EF" font-family="system-ui,-apple-system,sans-serif" font-size="16" font-weight="800">57</text>
  <!-- Label below -->
  <text x="120" y="346" text-anchor="middle" fill="#666" font-family="system-ui,-apple-system,sans-serif" font-size="11">Commits</text>
  <!-- Pull Requests bar -->
  <polygon points="225,299 355,299 345,309 215,309" fill="rgba(99,102,241,0.5)" stroke="none"/>
  <polygon points="345,309 355,299 355,320 345,330" fill="rgba(99,102,241,0.25)" stroke="none"/>
  <rect x="215" y="309" width="130" height="21" rx="4" fill="#6366F1"/>
  <!-- Glow -->
  <rect x="215" y="309" width="130" height="21" rx="4" fill="url(#glow)" opacity="0.3"/>
  <!-- Value on top -->
  <text x="280" y="295" text-anchor="middle" fill="#6366F1" font-family="system-ui,-apple-system,sans-serif" font-size="16" font-weight="800">5</text>
  <!-- Label below -->
  <text x="280" y="346" text-anchor="middle" fill="#666" font-family="system-ui,-apple-system,sans-serif" font-size="11">Pull Requests</text>
  <!-- Issues bar -->
  <polygon points="385,318 515,318 505,328 375,328" fill="rgba(245,158,11,0.5)" stroke="none"/>
  <polygon points="505,328 515,318 515,320 505,330" fill="rgba(245,158,11,0.25)" stroke="none"/>
  <rect x="375" y="328" width="130" height="2" rx="4" fill="#F59E0B"/>
  <!-- Value on top -->
  <text x="440" y="314" text-anchor="middle" fill="#F59E0B" font-family="system-ui,-apple-system,sans-serif" font-size="16" font-weight="800">0</text>
  <!-- Label below -->
  <text x="440" y="346" text-anchor="middle" fill="#666" font-family="system-ui,-apple-system,sans-serif" font-size="11">Issues</text>
  <!-- Code Reviews bar -->
  <polygon points="545,318 675,318 665,328 535,328" fill="rgba(34,211,238,0.5)" stroke="none"/>
  <polygon points="665,328 675,318 675,320 665,330" fill="rgba(34,211,238,0.25)" stroke="none"/>
  <rect x="535" y="328" width="130" height="2" rx="4" fill="#22D3EE"/>
  <!-- Value on top -->
  <text x="600" y="314" text-anchor="middle" fill="#22D3EE" font-family="system-ui,-apple-system,sans-serif" font-size="16" font-weight="800">0</text>
  <!-- Label below -->
  <text x="600" y="346" text-anchor="middle" fill="#666" font-family="system-ui,-apple-system,sans-serif" font-size="11">Code Reviews</text>

  </g>
</g>

<!-- Stats panel -->
<rect x="495" y="65" width="275" height="270" rx="12" fill="#111" stroke="#1a1a1a" stroke-width="1"/>
<text x="515" y="93" fill="#fff" font-family="system-ui,-apple-system,sans-serif" font-size="16" font-weight="700">Overview</text>
<line x1="515" y1="108" x2="750" y2="108" stroke="#1f1f1f" stroke-width="1"/>

  <text x="515" y="134" fill="#666" font-family="system-ui,-apple-system,sans-serif" font-size="11">Stars</text>
  <text x="750" y="134" text-anchor="end" fill="#22D3EE" font-family="system-ui,-apple-system,sans-serif" font-size="15" font-weight="800">12</text>
  <line x1="515" y1="148" x2="750" y2="148" stroke="#151515" stroke-width="1"/>
  <text x="515" y="164" fill="#666" font-family="system-ui,-apple-system,sans-serif" font-size="11">Contributions</text>
  <text x="750" y="164" text-anchor="end" fill="#D946EF" font-family="system-ui,-apple-system,sans-serif" font-size="15" font-weight="800">75</text>
  <line x1="515" y1="178" x2="750" y2="178" stroke="#151515" stroke-width="1"/>
  <text x="515" y="194" fill="#666" font-family="system-ui,-apple-system,sans-serif" font-size="11">Repos</text>
  <text x="750" y="194" text-anchor="end" fill="#6366F1" font-family="system-ui,-apple-system,sans-serif" font-size="15" font-weight="800">14</text>
  <line x1="515" y1="208" x2="750" y2="208" stroke="#151515" stroke-width="1"/>
  <text x="515" y="224" fill="#666" font-family="system-ui,-apple-system,sans-serif" font-size="11">Streak</text>
  <text x="750" y="224" text-anchor="end" fill="#22D3EE" font-family="system-ui,-apple-system,sans-serif" font-size="15" font-weight="800">2d</text>
  <line x1="515" y1="238" x2="750" y2="238" stroke="#151515" stroke-width="1"/>
  <text x="515" y="254" fill="#666" font-family="system-ui,-apple-system,sans-serif" font-size="11">Followers</text>
  <text x="750" y="254" text-anchor="end" fill="#D946EF" font-family="system-ui,-apple-system,sans-serif" font-size="15" font-weight="800">1</text>
  <line x1="515" y1="268" x2="750" y2="268" stroke="#151515" stroke-width="1"/>

<text x="515" y="290" fill="#888" font-family="system-ui,-apple-system,sans-serif" font-size="10" font-weight="600">CONTRIBUTION TYPES</text>
  <rect x="515" y="308" width="8" height="8" rx="2" fill="#D946EF"/>
  <text x="530" y="315" fill="#555" font-family="system-ui,-apple-system,sans-serif" font-size="10">Commits</text>
  <text x="750" y="315" text-anchor="end" fill="#D946EF" font-family="system-ui,-apple-system,sans-serif" font-size="11" font-weight="600">57</text>
  <rect x="515" y="326" width="8" height="8" rx="2" fill="#6366F1"/>
  <text x="530" y="333" fill="#555" font-family="system-ui,-apple-system,sans-serif" font-size="10">Pull Requests</text>
  <text x="750" y="333" text-anchor="end" fill="#6366F1" font-family="system-ui,-apple-system,sans-serif" font-size="11" font-weight="600">5</text>
  <rect x="515" y="344" width="8" height="8" rx="2" fill="#F59E0B"/>
  <text x="530" y="351" fill="#555" font-family="system-ui,-apple-system,sans-serif" font-size="10">Issues</text>
  <text x="750" y="351" text-anchor="end" fill="#F59E0B" font-family="system-ui,-apple-system,sans-serif" font-size="11" font-weight="600">0</text>
  <rect x="515" y="362" width="8" height="8" rx="2" fill="#22D3EE"/>
  <text x="530" y="369" fill="#555" font-family="system-ui,-apple-system,sans-serif" font-size="10">Code Reviews</text>
  <text x="750" y="369" text-anchor="end" fill="#22D3EE" font-family="system-ui,-apple-system,sans-serif" font-size="11" font-weight="600">0</text>

<text x="635" y="350" text-anchor="middle" fill="#333" font-family="system-ui,-apple-system,sans-serif" font-size="9">Updated 2026-06-19 17:00 UTC</text>
</svg>