<svg xmlns="http://www.w3.org/2000/svg" viewBox="0 0 800 400" width="800" height="400">
<defs>
  <linearGradient id="bg" x1="0%" y1="0%" x2="100%" y2="100%">
    <stop offset="0%" stop-color="#0c0c0c"/><stop offset="100%" stop-color="#050505"/>
  </linearGradient>
  <linearGradient id="rfill" x1="0%" y1="0%" x2="100%" y2="100%">
    <stop offset="0%" stop-color="#D946EF" stop-opacity="0.25"/>
    <stop offset="50%" stop-color="#6366F1" stop-opacity="0.15"/>
    <stop offset="100%" stop-color="#22D3EE" stop-opacity="0.08"/>
  </linearGradient>
  <linearGradient id="rstroke" x1="0%" y1="0%" x2="100%" y2="100%">
    <stop offset="0%" stop-color="#D946EF"/><stop offset="50%" stop-color="#6366F1"/><stop offset="100%" stop-color="#22D3EE"/>
  </linearGradient>
</defs>
<rect width="800" height="400" fill="url(#bg)" rx="16"/>

<!-- Header bar -->
<rect x="0" y="0" width="800" height="42" fill="#111" rx="16"/>
<rect x="0" y="26" width="800" height="16" fill="#111"/>
<text x="400" y="27" text-anchor="middle" fill="#6366F1" font-family="system-ui,-apple-system,sans-serif" font-size="12" font-weight="700" letter-spacing="3">GITHUB PROFILE OVERVIEW</text>

<!-- Radar -->
<g transform="translate(0,12)">
  <circle cx="210" cy="185" r="130" fill="none" stroke="#222" stroke-width="1"/>
  <circle cx="210" cy="185" r="98" fill="none" stroke="#222" stroke-width="1" stroke-dasharray="3,4"/>
  <circle cx="210" cy="185" r="65" fill="none" stroke="#222" stroke-width="1" stroke-dasharray="3,4"/>
  <circle cx="210" cy="185" r="32" fill="none" stroke="#222" stroke-width="1" stroke-dasharray="3,4"/>
    <line x1="210" y1="185" x2="210" y2="55" stroke="#1a1a1a" stroke-width="1"/>
    <line x1="210" y1="185" x2="334" y2="145" stroke="#1a1a1a" stroke-width="1"/>
    <line x1="210" y1="185" x2="286" y2="290" stroke="#1a1a1a" stroke-width="1"/>
    <line x1="210" y1="185" x2="134" y2="290" stroke="#1a1a1a" stroke-width="1"/>
    <line x1="210" y1="185" x2="86" y2="145" stroke="#1a1a1a" stroke-width="1"/>
  <polygon points="210.0,133.0 255.1,170.3 263.5,258.6 202.4,195.5 201.8,182.3" fill="url(#rfill)" stroke="url(#rstroke)" stroke-width="2"/>
  <circle cx="210" cy="185" r="3" fill="#6366F1"/>
  <circle cx="210" cy="185" r="6" fill="none" stroke="#6366F1" stroke-width="1" opacity="0.4"/>
    <circle cx="210" cy="55" r="4" fill="#22D3EE"/>
    <text x="210" y="14" text-anchor="middle" fill="#666" font-family="system-ui, -apple-system, sans-serif" font-size="11" font-weight="500">Stars</text>
    <text x="210" y="32" text-anchor="middle" fill="#22D3EE" font-family="system-ui, -apple-system, sans-serif" font-size="14" font-weight="800">12</text>
    <circle cx="334" cy="145" r="4" fill="#D946EF"/>
    <text x="366" y="127" text-anchor="start" fill="#666" font-family="system-ui, -apple-system, sans-serif" font-size="11" font-weight="500">Contributions</text>
    <text x="366" y="145" text-anchor="start" fill="#D946EF" font-family="system-ui, -apple-system, sans-serif" font-size="14" font-weight="800">73</text>
    <circle cx="286" cy="290" r="4" fill="#6366F1"/>
    <text x="306" y="311" text-anchor="start" fill="#666" font-family="system-ui, -apple-system, sans-serif" font-size="11" font-weight="500">Repos</text>
    <text x="306" y="329" text-anchor="start" fill="#6366F1" font-family="system-ui, -apple-system, sans-serif" font-size="14" font-weight="800">14</text>
    <circle cx="134" cy="290" r="4" fill="#D946EF"/>
    <text x="114" y="311" text-anchor="end" fill="#666" font-family="system-ui, -apple-system, sans-serif" font-size="11" font-weight="500">Followers</text>
    <text x="114" y="329" text-anchor="end" fill="#D946EF" font-family="system-ui, -apple-system, sans-serif" font-size="14" font-weight="800">1</text>
    <circle cx="86" cy="145" r="4" fill="#22D3EE"/>
    <text x="54" y="127" text-anchor="end" fill="#666" font-family="system-ui, -apple-system, sans-serif" font-size="11" font-weight="500">Streak</text>
    <text x="54" y="145" text-anchor="end" fill="#22D3EE" font-family="system-ui, -apple-system, sans-serif" font-size="14" font-weight="800">2d</text>
</g>

<!-- Stats panel -->
<rect x="435" y="60" width="340" height="305" rx="12" fill="#111" stroke="#1a1a1a" stroke-width="1"/>
<text x="455" y="88" fill="#fff" font-family="system-ui,-apple-system,sans-serif" font-size="18" font-weight="700">Profile Breakdown</text>
<text x="455" y="107" fill="#555" font-family="system-ui,-apple-system,sans-serif" font-size="11">Live data from GitHub API</text>
<line x1="455" y1="120" x2="755" y2="120" stroke="#1f1f1f" stroke-width="1"/>
  <text x="460" y="152" fill="#666" font-family="system-ui, -apple-system, sans-serif" font-size="12">Total Stars</text>
  <text x="750" y="152" text-anchor="end" fill="#22D3EE" font-family="system-ui, -apple-system, sans-serif" font-size="18" font-weight="800">12</text>
  <line x1="460" y1="166" x2="750" y2="166" stroke="#151515" stroke-width="1"/>
  <text x="460" y="188" fill="#666" font-family="system-ui, -apple-system, sans-serif" font-size="12">Contributions</text>
  <text x="750" y="188" text-anchor="end" fill="#D946EF" font-family="system-ui, -apple-system, sans-serif" font-size="18" font-weight="800">73</text>
  <line x1="460" y1="202" x2="750" y2="202" stroke="#151515" stroke-width="1"/>
  <text x="460" y="224" fill="#666" font-family="system-ui, -apple-system, sans-serif" font-size="12">Repositories</text>
  <text x="750" y="224" text-anchor="end" fill="#6366F1" font-family="system-ui, -apple-system, sans-serif" font-size="18" font-weight="800">14</text>
  <line x1="460" y1="238" x2="750" y2="238" stroke="#151515" stroke-width="1"/>
  <text x="460" y="260" fill="#666" font-family="system-ui, -apple-system, sans-serif" font-size="12">Streak</text>
  <text x="750" y="260" text-anchor="end" fill="#22D3EE" font-family="system-ui, -apple-system, sans-serif" font-size="18" font-weight="800">2 days</text>
  <line x1="460" y1="274" x2="750" y2="274" stroke="#151515" stroke-width="1"/>
  <text x="460" y="296" fill="#666" font-family="system-ui, -apple-system, sans-serif" font-size="12">Followers</text>
  <text x="750" y="296" text-anchor="end" fill="#D946EF" font-family="system-ui, -apple-system, sans-serif" font-size="18" font-weight="800">1</text>
  <line x1="460" y1="310" x2="750" y2="310" stroke="#151515" stroke-width="1"/>

<text x="615" y="340" text-anchor="middle" fill="#333" font-family="system-ui,-apple-system,sans-serif" font-size="9">Updated 2026-06-19 16:56 UTC</text>
</svg>